{"asset":{"version":"2.0","generator":"Blockbench 4.9.4 glTF exporter"},"scenes":[{"nodes":[10],"name":"blockbench_export"}],"scene":0,"nodes":[{"rotation":[0,0,0.7071067811865475,0.7071067811865476],"translation":[0.0018750000000001474,0.4375,5.545777512430469e-16],"name":"Outer Cog","mesh":0},{"rotation":[0,0,0.7071067811865475,0.7071067811865476],"translation":[0.0018750000000001474,0.4375,5.545777512430469e-16],"name":"Outer Cog","mesh":1},{"translation":[-0.0018750000000001474,0,-5.551115123125783e-16],"name":"OuterCog2","children":[1]},{"rotation":[0,0,0.7071067811865475,0.7071067811865476],"translation":[5.342948306008566e-16,8.881784197001252e-16,1.2212666775304534e-15],"name":"Inner Cog","mesh":2},{"translation":[0.031250000000000354,-8.881784197001252e-16,-1.2212453270876722e-15],"name":"InnerCog2","children":[3]},{"translation":[0.0018750000000001474,0,5.551115123125783e-16],"name":"Cog2","children":[2,4]},{"translation":[-0.0018750000000001474,0,-5.551115123125783e-16],"name":"OuterCog","children":[0,5]},{"rotation":[0,0,0.7071067811865475,0.7071067811865476],"translation":[5.342948306008566e-16,8.881784197001252e-16,1.2212666775304534e-15],"name":"Inner Cog","mesh":3},{"translation":[0.031250000000000354,-8.881784197001252e-16,-1.2212453270876722e-15],"name":"InnerCog","children":[7]},{"translation":[0,0.875,0],"name":"Cog","children":[6,8]},{"children":[9]}],"bufferViews":[{"buffer":0,"byteOffset":0,"byteLength":10896,"target":34962,"byteStride":12},{"buffer":0,"byteOffset":10896,"byteLength":10896,"target":34962,"byteStride":12},{"buffer":0,"byteOffset":21792,"byteLength":7264,"target":34962,"byteStride":8},{"buffer":0,"byteOffset":29056,"byteLength":2724,"target":34963},{"buffer":0,"byteOffset":31780,"byteLength":10896,"target":34962,"byteStride":12},{"buffer":0,"byteOffset":42676,"byteLength":10896,"target":34962,"byteStride":12},{"buffer":0,"byteOffset":53572,"byteLength":7264,"target":34962,"byteStride":8},{"buffer":0,"byteOffset":60836,"byteLength":2724,"target":34963},{"buffer":0,"byteOffset":63560,"byteLength":2592,"target":34962,"byteStride":12},{"buffer":0,"byteOffset":66152,"byteLength":2592,"target":34962,"byteStride":12},{"buffer":0,"byteOffset":68744,"byteLength":1728,"target":34962,"byteStride":8},{"buffer":0,"byteOffset":70472,"byteLength":576,"target":34963},{"buffer":0,"byteOffset":71048,"byteLength":2592,"target":34962,"byteStride":12},{"buffer":0,"byteOffset":73640,"byteLength":2592,"target":34962,"byteStride":12},{"buffer":0,"byteOffset":76232,"byteLength":1728,"target":34962,"byteStride":8},{"buffer":0,"byteOffset":77960,"byteLength":576,"target":34963},{"buffer":0,"byteOffset":78536,"byteLength":16},{"buffer":0,"byteOffset":78552,"byteLength":64},{"buffer":0,"byteOffset":78616,"byteLength":204},{"buffer":0,"byteOffset":78820,"byteLength":612}],"buffers":[{"byteLength":79432,"uri":"data:application/octet-stream;base64,"}],"accessors":[{"bufferView":0,"componentType":5126,"count":908,"max":[0.375,0.1875,0.7790063619613647],"min":[-1.25,-0.125,-0.7790063619613647],"type":"VEC3"},{"bufferView":1,"componentType":5126,"count":908,"max":[1,1,1],"min":[-1,-1,-1],"type":"VEC3"},{"bufferView":2,"componentType":5126,"count":908,"max":[0.996681272983551,0.90625],"min":[0,0],"type":"VEC2"},{"bufferView":3,"componentType":5123,"count":1362,"max":[907],"min":[0],"type":"SCALAR"},{"bufferView":4,"componentType":5126,"count":908,"max":[0.375,0.1875,0.7790063619613647],"min":[-1.25,-0.125,-0.7790063619613647],"type":"VEC3"},{"bufferView":5,"componentType":5126,"count":908,"max":[1,1,1],"min":[-1,-1,-1],"type":"VEC3"},{"bufferView":6,"componentType":5126,"count":908,"max":[0.996681272983551,0.90625],"min":[0,0],"type":"VEC2"},{"bufferView":7,"componentType":5123,"count":1362,"max":[907],"min":[0],"type":"SCALAR"},{"bufferView":8,"componentType":5126,"count":216,"max":[0.1875,0.09375,0.1791265904903412],"min":[-0.1875,-0.09375,-0.1791265904903412],"type":"VEC3"},{"bufferView":9,"componentType":5126,"count":216,"max":[1,1,1],"min":[-1,-1,-1],"type":"VEC3"},{"bufferView":10,"componentType":5126,"count":216,"max":[0.890625,0.921875],"min":[0.125,0.046875],"type":"VEC2"},{"bufferView":11,"componentType":5123,"count":288,"max":[215],"min":[0],"type":"SCALAR"},{"bufferView":12,"componentType":5126,"count":216,"max":[0.1875,0.09375,0.1791265904903412],"min":[-0.1875,-0.09375,-0.1791265904903412],"type":"VEC3"},{"bufferView":13,"componentType":5126,"count":216,"max":[1,1,1],"min":[-1,-1,-1],"type":"VEC3"},{"bufferView":14,"componentType":5126,"count":216,"max":[0.890625,0.921875],"min":[0.125,0.046875],"type":"VEC2"},{"bufferView":15,"componentType":5123,"count":288,"max":[215],"min":[0],"type":"SCALAR"},{"bufferView":16,"componentType":5126,"count":4,"max":[3],"min":[0],"type":"SCALAR"},{"bufferView":17,"componentType":5126,"count":4,"max":[0.25,0.75,0,1],"min":[-1,0,-0.75,-0.25],"type":"VEC4"},{"bufferView":18,"componentType":5126,"count":51,"max":[3],"min":[0],"type":"SCALAR"},{"bufferView":19,"componentType":5126,"count":51,"max":[0,1.1875,0],"min":[0,0.875,0],"type":"VEC3"}],"materials":[{"pbrMetallicRoughness":{"metallicFactor":0,"roughnessFactor":1,"baseColorTexture":{"index":0}},"alphaMode":"MASK","alphaCutoff":0.05,"doubleSided":true}],"textures":[{"sampler":0,"source":0}],"samplers":[{"magFilter":9728,"minFilter":9728,"wrapS":33071,"wrapT":33071}],"images":[{"mimeType":"image/png","uri":"data:image/png;base64,"}],"meshes":[{"primitives":[{"mode":4,"attributes":{"POSITION":0,"NORMAL":1,"TEXCOORD_0":2},"indices":3,"material":0}]},{"primitives":[{"mode":4,"attributes":{"POSITION":4,"NORMAL":5,"TEXCOORD_0":6},"indices":7,"material":0}]},{"primitives":[{"mode":4,"attributes":{"POSITION":8,"NORMAL":9,"TEXCOORD_0":10},"indices":11,"material":0}]},{"primitives":[{"mode":4,"attributes":{"POSITION":12,"NORMAL":13,"TEXCOORD_0":14},"indices":15,"material":0}]}],"animations":[{"name":"float","samplers":[{"input":16,"output":17,"interpolation":"LINEAR"},{"input":18,"output":19,"interpolation":"LINEAR"}],"channels":[{"sampler":0,"target":{"node":9,"path":"rotation"}},{"sampler":1,"target":{"node":9,"path":"translation"}}]}]}