{"asset":{"version":"2.0","generator":"Blockbench 4.9.4 glTF exporter"},"scenes":[{"nodes":[2],"name":"blockbench_export"}],"scene":0,"nodes":[{"name":"cuboid","mesh":0},{"translation":[-2.4671622769447922e-17,1.4722222222222223,0],"name":"sign","children":[0]},{"children":[1]}],"bufferViews":[{"buffer":0,"byteOffset":0,"byteLength":1632,"target":34962,"byteStride":12},{"buffer":0,"byteOffset":1632,"byteLength":1632,"target":34962,"byteStride":12},{"buffer":0,"byteOffset":3264,"byteLength":1088,"target":34962,"byteStride":8},{"buffer":0,"byteOffset":4352,"byteLength":408,"target":34963},{"buffer":0,"byteOffset":4760,"byteLength":132},{"buffer":0,"byteOffset":4892,"byteLength":528}],"buffers":[{"byteLength":5420,"uri":"data:application/octet-stream;base64,"}],"accessors":[{"bufferView":0,"componentType":5126,"count":136,"max":[0.9375,0.0902777761220932,0.09375],"min":[-0.9375,-1.4722222089767456,-0.09375],"type":"VEC3"},{"bufferView":1,"componentType":5126,"count":136,"max":[1,1,1],"min":[-1,-1,-1],"type":"VEC3"},{"bufferView":2,"componentType":5126,"count":136,"max":[0.953125,0.765625],"min":[0,0],"type":"VEC2"},{"bufferView":3,"componentType":5123,"count":204,"max":[135],"min":[0],"type":"SCALAR"},{"bufferView":4,"componentType":5126,"count":33,"max":[1.75],"min":[0],"type":"SCALAR"},{"bufferView":5,"componentType":5126,"count":33,"max":[0.44228869676589966,0,0,1],"min":[-0.8191520571708679,0,0,0.5735764503479004],"type":"VEC4"}],"materials":[{"pbrMetallicRoughness":{"metallicFactor":0,"roughnessFactor":1,"baseColorTexture":{"index":0}},"alphaMode":"MASK","alphaCutoff":0.05,"doubleSided":true}],"textures":[{"sampler":0,"source":0}],"samplers":[{"magFilter":9728,"minFilter":9728,"wrapS":33071,"wrapT":33071}],"images":[{"mimeType":"image/png","uri":"data:image/png;base64,"}],"meshes":[{"primitives":[{"mode":4,"attributes":{"POSITION":0,"NORMAL":1,"TEXCOORD_0":2},"indices":3,"material":0}]}],"animations":[{"name":"swing","samplers":[{"input":4,"output":5,"interpolation":"LINEAR"}],"channels":[{"sampler":0,"target":{"node":1,"path":"rotation"}}]}]}