{"asset":{"version":"2.0","generator":"Blockbench 4.9.4 glTF exporter"},"scenes":[{"nodes":[2],"name":"blockbench_export"}],"scene":0,"nodes":[{"name":"cuboid","mesh":0},{"translation":[0.1875,4.472222222222222,0],"name":"2d5077a9-c8da-47a4-fb3e-6293f0d8a4a5"},{"children":[0,1]}],"bufferViews":[{"buffer":0,"byteOffset":0,"byteLength":8352,"target":34962,"byteStride":12},{"buffer":0,"byteOffset":8352,"byteLength":8352,"target":34962,"byteStride":12},{"buffer":0,"byteOffset":16704,"byteLength":5568,"target":34962,"byteStride":8},{"buffer":0,"byteOffset":22272,"byteLength":2088,"target":34963}],"buffers":[{"byteLength":24360,"uri":"data:application/octet-stream;base64,"}],"accessors":[{"bufferView":0,"componentType":5126,"count":696,"max":[7.375,6.5,3.125],"min":[-5.125,0,-0.875],"type":"VEC3"},{"bufferView":1,"componentType":5126,"count":696,"max":[1,1,1],"min":[-1,-1,-1],"type":"VEC3"},{"bufferView":2,"componentType":5126,"count":696,"max":[0.80078125,0.625],"min":[0,0],"type":"VEC2"},{"bufferView":3,"componentType":5123,"count":1044,"max":[695],"min":[0],"type":"SCALAR"}],"materials":[{"pbrMetallicRoughness":{"metallicFactor":0,"roughnessFactor":1,"baseColorTexture":{"index":0}},"alphaMode":"MASK","alphaCutoff":0.05,"doubleSided":true}],"textures":[{"sampler":0,"source":0}],"samplers":[{"magFilter":9728,"minFilter":9728,"wrapS":33071,"wrapT":33071}],"images":[{"mimeType":"image/png","uri":"data:image/png;base64,"}],"meshes":[{"primitives":[{"mode":4,"attributes":{"POSITION":0,"NORMAL":1,"TEXCOORD_0":2},"indices":3,"material":0}]}]}