{"asset":{"version":"2.0","generator":"Blockbench 4.9.4 glTF exporter"},"scenes":[{"nodes":[9],"name":"blockbench_export"}],"scene":0,"nodes":[{"name":"tree4"},{"name":"tree3"},{"name":"tree2"},{"name":"cuboid","mesh":0},{"name":"sphere","mesh":1},{"name":"sphere","mesh":2},{"name":"sphere","mesh":3},{"name":"sphere","mesh":4},{"name":"tree","children":[0,1,2,3,4,5,6,7]},{"children":[8]}],"bufferViews":[{"buffer":0,"byteOffset":0,"byteLength":4800,"target":34962,"byteStride":12},{"buffer":0,"byteOffset":4800,"byteLength":4800,"target":34962,"byteStride":12},{"buffer":0,"byteOffset":9600,"byteLength":3200,"target":34962,"byteStride":8},{"buffer":0,"byteOffset":12800,"byteLength":1200,"target":34963},{"buffer":0,"byteOffset":14000,"byteLength":1344,"target":34962,"byteStride":12},{"buffer":0,"byteOffset":15344,"byteLength":1344,"target":34962,"byteStride":12},{"buffer":0,"byteOffset":16688,"byteLength":896,"target":34962,"byteStride":8},{"buffer":0,"byteOffset":17584,"byteLength":288,"target":34963},{"buffer":0,"byteOffset":17872,"byteLength":1344,"target":34962,"byteStride":12},{"buffer":0,"byteOffset":19216,"byteLength":1344,"target":34962,"byteStride":12},{"buffer":0,"byteOffset":20560,"byteLength":896,"target":34962,"byteStride":8},{"buffer":0,"byteOffset":21456,"byteLength":288,"target":34963},{"buffer":0,"byteOffset":21744,"byteLength":1344,"target":34962,"byteStride":12},{"buffer":0,"byteOffset":23088,"byteLength":1344,"target":34962,"byteStride":12},{"buffer":0,"byteOffset":24432,"byteLength":896,"target":34962,"byteStride":8},{"buffer":0,"byteOffset":25328,"byteLength":288,"target":34963},{"buffer":0,"byteOffset":25616,"byteLength":1344,"target":34962,"byteStride":12},{"buffer":0,"byteOffset":26960,"byteLength":1344,"target":34962,"byteStride":12},{"buffer":0,"byteOffset":28304,"byteLength":896,"target":34962,"byteStride":8},{"buffer":0,"byteOffset":29200,"byteLength":288,"target":34963}],"buffers":[{"byteLength":29488,"uri":"data:application/octet-stream;base64,"}],"accessors":[{"bufferView":0,"componentType":5126,"count":400,"max":[1.783645510673523,4.25,1.6062500476837158],"min":[-1.7958875894546509,0,-1.3001477718353271],"type":"VEC3"},{"bufferView":1,"componentType":5126,"count":400,"max":[1,1,1],"min":[-1,-1,-1],"type":"VEC3"},{"bufferView":2,"componentType":5126,"count":400,"max":[0.5351981520652771,0.5360864400863647],"min":[0,0],"type":"VEC2"},{"bufferView":3,"componentType":5123,"count":600,"max":[399],"min":[0],"type":"SCALAR"},{"bufferView":4,"componentType":5126,"count":112,"max":[0.625,5.375,1.5625],"min":[-2.5,3.5,-1.5625],"type":"VEC3"},{"bufferView":5,"componentType":5126,"count":112,"max":[0.8229431509971619,0.9704776406288147,0.8229431509971619],"min":[-0.8229431509971619,-0.9704776406288147,-0.8229431509971619],"type":"VEC3"},{"bufferView":6,"componentType":5126,"count":112,"max":[0.6629320383071899,0.6640625],"min":[0,0.02734375],"type":"VEC2"},{"bufferView":7,"componentType":5123,"count":144,"max":[111],"min":[0],"type":"SCALAR"},{"bufferView":8,"componentType":5126,"count":112,"max":[2.6875,6.5625,1.8125],"min":[-1.6875,3.4375,-1.3125],"type":"VEC3"},{"bufferView":9,"componentType":5126,"count":112,"max":[0.8650690913200378,0.9589102268218994,0.9238795042037964],"min":[-0.8650690913200378,-0.9589102268218994,-0.9238795042037964],"type":"VEC3"},{"bufferView":10,"componentType":5126,"count":112,"max":[0.6244187951087952,0.4375],"min":[0.000581210246309638,0],"type":"VEC2"},{"bufferView":11,"componentType":5123,"count":144,"max":[111],"min":[0],"type":"SCALAR"},{"bufferView":12,"componentType":5126,"count":112,"max":[2.375,5.15625,2.25],"min":[-0.125,3.21875,-0.25],"type":"VEC3"},{"bufferView":13,"componentType":5126,"count":112,"max":[0.8819366693496704,0.9521430730819702,0.8819366693496704],"min":[-0.8819366693496704,-0.9521430730819702,-0.8819366693496704],"type":"VEC3"},{"bufferView":14,"componentType":5126,"count":112,"max":[0.7639394402503967,0.7421875],"min":[0.0011038212105631828,0.08203125],"type":"VEC2"},{"bufferView":15,"componentType":5123,"count":144,"max":[111],"min":[0],"type":"SCALAR"},{"bufferView":16,"componentType":5126,"count":112,"max":[1.5,5.15625,0.3125],"min":[-1,3.21875,-2.1875],"type":"VEC3"},{"bufferView":17,"componentType":5126,"count":112,"max":[0.8819366693496704,0.9521430730819702,0.8819366693496704],"min":[-0.8819366693496704,-0.9521430730819702,-0.8819366693496704],"type":"VEC3"},{"bufferView":18,"componentType":5126,"count":112,"max":[0.76171875,0.72265625],"min":[0.0008425781270489097,0],"type":"VEC2"},{"bufferView":19,"componentType":5123,"count":144,"max":[111],"min":[0],"type":"SCALAR"}],"materials":[{"pbrMetallicRoughness":{"metallicFactor":0,"roughnessFactor":1,"baseColorTexture":{"index":0}},"alphaMode":"MASK","alphaCutoff":0.05,"doubleSided":true},{"pbrMetallicRoughness":{"metallicFactor":0,"roughnessFactor":1,"baseColorTexture":{"index":1}},"alphaMode":"MASK","alphaCutoff":0.05,"doubleSided":true}],"textures":[{"sampler":0,"source":0},{"sampler":1,"source":1}],"samplers":[{"magFilter":9728,"minFilter":9728,"wrapS":33071,"wrapT":33071},{"magFilter":9728,"minFilter":9728,"wrapS":33071,"wrapT":33071}],"images":[{"mimeType":"image/png","uri":"data:image/png;base64,"},{"mimeType":"image/png","uri":"data:image/png;base64,"}],"meshes":[{"primitives":[{"mode":4,"attributes":{"POSITION":0,"NORMAL":1,"TEXCOORD_0":2},"indices":3,"material":0}]},{"primitives":[{"mode":4,"attributes":{"POSITION":4,"NORMAL":5,"TEXCOORD_0":6},"indices":7,"material":1}]},{"primitives":[{"mode":4,"attributes":{"POSITION":8,"NORMAL":9,"TEXCOORD_0":10},"indices":11,"material":1}]},{"primitives":[{"mode":4,"attributes":{"POSITION":12,"NORMAL":13,"TEXCOORD_0":14},"indices":15,"material":1}]},{"primitives":[{"mode":4,"attributes":{"POSITION":16,"NORMAL":17,"TEXCOORD_0":18},"indices":19,"material":1}]}]}