{"asset":{"version":"2.0","generator":"Blockbench 4.9.3 glTF exporter"},"scenes":[{"nodes":[15],"name":"blockbench_export"}],"scene":0,"nodes":[{"name":"Pistol","mesh":0},{"name":"Pistol","children":[0]},{"rotation":[1.5700924586837741e-15,1.570092458683776e-15,0.7071067811865471,0.7071067811865479],"translation":[1.6653345369377368e-15,0,0.37500000000000044],"name":"Cog","mesh":1},{"translation":[-1.4741294604745155e-15,1.375,0],"name":"Cog","children":[2]},{"translation":[0,-0.875,0],"name":"Gun","children":[1,3]},{"name":"Fist","mesh":2},{"translation":[0,-0.875,0],"name":"Fist","children":[5]},{"translation":[0,0.875,0],"name":"Body","children":[4,6]},{"translation":[6.344131569286608e-17,0,-6.938893903907228e-18],"name":"Hand","mesh":3},{"rotation":[1.5700924586837741e-15,1.570092458683776e-15,0.7071067811865471,0.7071067811865479],"translation":[1.7287758526306009e-15,-1.1102230246251565e-16,0.3750000000000005],"name":"Cog","mesh":4},{"translation":[-1.6653345369377348e-15,-0.12499999999999989,-0.36250000000000004],"name":"Cog2","children":[9]},{"translation":[-6.344131569286608e-17,-0.9375,0.05],"name":"Hand","children":[8,10]},{"rotation":[1.5700924586837741e-15,1.570092458683776e-15,0.7071067811865471,0.7071067811865479],"translation":[1.6653345369377368e-15,0,0.37500000000000044],"name":"Cog","mesh":5},{"translation":[-1.4741294604745155e-15,-1.25,0],"name":"Cog3","children":[12]},{"translation":[0,0.875,0],"name":"External","children":[11,13]},{"children":[7,14]}],"bufferViews":[{"buffer":0,"byteOffset":0,"byteLength":7344,"target":34962,"byteStride":12},{"buffer":0,"byteOffset":7344,"byteLength":7344,"target":34962,"byteStride":12},{"buffer":0,"byteOffset":14688,"byteLength":4896,"target":34962,"byteStride":8},{"buffer":0,"byteOffset":19584,"byteLength":1824,"target":34963},{"buffer":0,"byteOffset":21408,"byteLength":3264,"target":34962,"byteStride":12},{"buffer":0,"byteOffset":24672,"byteLength":3264,"target":34962,"byteStride":12},{"buffer":0,"byteOffset":27936,"byteLength":2176,"target":34962,"byteStride":8},{"buffer":0,"byteOffset":30112,"byteLength":768,"target":34963},{"buffer":0,"byteOffset":30880,"byteLength":288,"target":34962,"byteStride":12},{"buffer":0,"byteOffset":31168,"byteLength":288,"target":34962,"byteStride":12},{"buffer":0,"byteOffset":31456,"byteLength":192,"target":34962,"byteStride":8},{"buffer":0,"byteOffset":31648,"byteLength":72,"target":34963},{"buffer":0,"byteOffset":31720,"byteLength":1248,"target":34962,"byteStride":12},{"buffer":0,"byteOffset":32968,"byteLength":1248,"target":34962,"byteStride":12},{"buffer":0,"byteOffset":34216,"byteLength":832,"target":34962,"byteStride":8},{"buffer":0,"byteOffset":35048,"byteLength":312,"target":34963},{"buffer":0,"byteOffset":35360,"byteLength":3264,"target":34962,"byteStride":12},{"buffer":0,"byteOffset":38624,"byteLength":3264,"target":34962,"byteStride":12},{"buffer":0,"byteOffset":41888,"byteLength":2176,"target":34962,"byteStride":8},{"buffer":0,"byteOffset":44064,"byteLength":768,"target":34963},{"buffer":0,"byteOffset":44832,"byteLength":3264,"target":34962,"byteStride":12},{"buffer":0,"byteOffset":48096,"byteLength":3264,"target":34962,"byteStride":12},{"buffer":0,"byteOffset":51360,"byteLength":2176,"target":34962,"byteStride":8},{"buffer":0,"byteOffset":53536,"byteLength":768,"target":34963},{"buffer":0,"byteOffset":54304,"byteLength":148},{"buffer":0,"byteOffset":54452,"byteLength":592},{"buffer":0,"byteOffset":55044,"byteLength":156},{"buffer":0,"byteOffset":55200,"byteLength":468},{"buffer":0,"byteOffset":55668,"byteLength":4},{"buffer":0,"byteOffset":55672,"byteLength":12},{"buffer":0,"byteOffset":55684,"byteLength":56},{"buffer":0,"byteOffset":55740,"byteLength":224},{"buffer":0,"byteOffset":55964,"byteLength":56},{"buffer":0,"byteOffset":56020,"byteLength":168},{"buffer":0,"byteOffset":56188,"byteLength":4},{"buffer":0,"byteOffset":56192,"byteLength":12},{"buffer":0,"byteOffset":56204,"byteLength":28},{"buffer":0,"byteOffset":56232,"byteLength":112},{"buffer":0,"byteOffset":56344,"byteLength":24},{"buffer":0,"byteOffset":56368,"byteLength":96},{"buffer":0,"byteOffset":56464,"byteLength":16},{"buffer":0,"byteOffset":56480,"byteLength":48},{"buffer":0,"byteOffset":56528,"byteLength":4},{"buffer":0,"byteOffset":56532,"byteLength":12},{"buffer":0,"byteOffset":56544,"byteLength":40},{"buffer":0,"byteOffset":56584,"byteLength":160},{"buffer":0,"byteOffset":56744,"byteLength":36},{"buffer":0,"byteOffset":56780,"byteLength":144},{"buffer":0,"byteOffset":56924,"byteLength":40},{"buffer":0,"byteOffset":56964,"byteLength":120},{"buffer":0,"byteOffset":57084,"byteLength":4},{"buffer":0,"byteOffset":57088,"byteLength":12},{"buffer":0,"byteOffset":57100,"byteLength":148},{"buffer":0,"byteOffset":57248,"byteLength":592},{"buffer":0,"byteOffset":57840,"byteLength":16},{"buffer":0,"byteOffset":57856,"byteLength":48},{"buffer":0,"byteOffset":57904,"byteLength":136},{"buffer":0,"byteOffset":58040,"byteLength":544},{"buffer":0,"byteOffset":58584,"byteLength":136},{"buffer":0,"byteOffset":58720,"byteLength":408},{"buffer":0,"byteOffset":59128,"byteLength":108},{"buffer":0,"byteOffset":59236,"byteLength":432},{"buffer":0,"byteOffset":59668,"byteLength":120},{"buffer":0,"byteOffset":59788,"byteLength":360},{"buffer":0,"byteOffset":60148,"byteLength":44},{"buffer":0,"byteOffset":60192,"byteLength":176},{"buffer":0,"byteOffset":60368,"byteLength":44},{"buffer":0,"byteOffset":60412,"byteLength":132},{"buffer":0,"byteOffset":60544,"byteLength":4},{"buffer":0,"byteOffset":60548,"byteLength":16},{"buffer":0,"byteOffset":60564,"byteLength":16},{"buffer":0,"byteOffset":60580,"byteLength":48}],"buffers":[{"byteLength":60628,"uri":"data:application/octet-stream;base64,"}],"accessors":[{"bufferView":0,"componentType":5126,"count":612,"max":[0.1875,1.5733587741851807,0.1875],"min":[-0.1875,0.5625,-1.1875],"type":"VEC3"},{"bufferView":1,"componentType":5126,"count":612,"max":[1,1,1],"min":[-1,-1,-1],"type":"VEC3"},{"bufferView":2,"componentType":5126,"count":612,"max":[0.6381875276565552,0.65625],"min":[0,0],"type":"VEC2"},{"bufferView":3,"componentType":5123,"count":912,"max":[611],"min":[0],"type":"SCALAR"},{"bufferView":4,"componentType":5126,"count":272,"max":[0.16919417679309845,0.0625,-0.20580582320690155],"min":[-0.16919417679309845,-0.0625,-0.5441941618919373],"type":"VEC3"},{"bufferView":5,"componentType":5126,"count":272,"max":[1,1,1],"min":[-1,-1,-1],"type":"VEC3"},{"bufferView":6,"componentType":5126,"count":272,"max":[0.65625,0.65625],"min":[0.11004531383514404,0],"type":"VEC2"},{"bufferView":7,"componentType":5123,"count":384,"max":[271],"min":[0],"type":"SCALAR"},{"bufferView":8,"componentType":5126,"count":24,"max":[0.25,1,0.23749999701976776],"min":[-0.125,0.625,-0.13750000298023224],"type":"VEC3"},{"bufferView":9,"componentType":5126,"count":24,"max":[1,1,1],"min":[-1,-1,-1],"type":"VEC3"},{"bufferView":10,"componentType":5126,"count":24,"max":[0.625,0.625],"min":[0,0],"type":"VEC2"},{"bufferView":11,"componentType":5123,"count":36,"max":[23],"min":[0],"type":"SCALAR"},{"bufferView":12,"componentType":5126,"count":104,"max":[0.22366070747375488,0.0625,0.20000000298023224],"min":[-0.22633928060531616,-0.0625,-0.30000001192092896],"type":"VEC3"},{"bufferView":13,"componentType":5126,"count":104,"max":[1,1,1],"min":[-1,-1,-1],"type":"VEC3"},{"bufferView":14,"componentType":5126,"count":104,"max":[0.4984374940395355,0.53125],"min":[0.004687500186264515,0],"type":"VEC2"},{"bufferView":15,"componentType":5123,"count":156,"max":[103],"min":[0],"type":"SCALAR"},{"bufferView":16,"componentType":5126,"count":272,"max":[0.16919417679309845,0.0625,-0.20580582320690155],"min":[-0.16919417679309845,-0.0625,-0.5441941618919373],"type":"VEC3"},{"bufferView":17,"componentType":5126,"count":272,"max":[1,1,1],"min":[-1,-1,-1],"type":"VEC3"},{"bufferView":18,"componentType":5126,"count":272,"max":[0.65625,0.65625],"min":[0.11004531383514404,0],"type":"VEC2"},{"bufferView":19,"componentType":5123,"count":384,"max":[271],"min":[0],"type":"SCALAR"},{"bufferView":20,"componentType":5126,"count":272,"max":[0.16919417679309845,0.0625,-0.20580582320690155],"min":[-0.16919417679309845,-0.0625,-0.5441941618919373],"type":"VEC3"},{"bufferView":21,"componentType":5126,"count":272,"max":[1,1,1],"min":[-1,-1,-1],"type":"VEC3"},{"bufferView":22,"componentType":5126,"count":272,"max":[0.65625,0.65625],"min":[0.11004531383514404,0],"type":"VEC2"},{"bufferView":23,"componentType":5123,"count":384,"max":[271],"min":[0],"type":"SCALAR"},{"bufferView":24,"componentType":5126,"count":37,"max":[2],"min":[0],"type":"SCALAR"},{"bufferView":25,"componentType":5126,"count":37,"max":[0.04361938685178757,0,0,1],"min":[-0.04361938685178757,0,0,0.9990482330322266],"type":"VEC4"},{"bufferView":26,"componentType":5126,"count":39,"max":[2],"min":[0],"type":"SCALAR"},{"bufferView":27,"componentType":5126,"count":39,"max":[0,1,0],"min":[0,0.875,0],"type":"VEC3"},{"bufferView":28,"componentType":5126,"count":1,"max":[0],"min":[0],"type":"SCALAR"},{"bufferView":29,"componentType":5126,"count":1,"max":[0,-0.5,1.375],"min":[0,-0.5,1.375],"type":"VEC3"},{"bufferView":30,"componentType":5126,"count":14,"max":[0.7916666865348816],"min":[0],"type":"SCALAR"},{"bufferView":31,"componentType":5126,"count":14,"max":[0.02181488461792469,0,0,1],"min":[-0.02181488461792469,0,0,0.9997619986534119],"type":"VEC4"},{"bufferView":32,"componentType":5126,"count":14,"max":[0.7916666865348816],"min":[0],"type":"SCALAR"},{"bufferView":33,"componentType":5126,"count":14,"max":[0,1,0],"min":[0,0.875,0],"type":"VEC3"},{"bufferView":34,"componentType":5126,"count":1,"max":[0],"min":[0],"type":"SCALAR"},{"bufferView":35,"componentType":5126,"count":1,"max":[0,-0.4375,1.5],"min":[0,-0.4375,1.5],"type":"VEC3"},{"bufferView":36,"componentType":5126,"count":7,"max":[0.3333333432674408],"min":[0],"type":"SCALAR"},{"bufferView":37,"componentType":5126,"count":7,"max":[0,0,0,1],"min":[-0.9492426514625549,0,0,-0.7071067690849304],"type":"VEC4"},{"bufferView":38,"componentType":5126,"count":6,"max":[0.3333333432674408],"min":[0],"type":"SCALAR"},{"bufferView":39,"componentType":5126,"count":6,"max":[0.3420201539993286,0,0,1],"min":[0,0,0,0.9396926164627075],"type":"VEC4"},{"bufferView":40,"componentType":5126,"count":4,"max":[0.3333333432674408],"min":[0],"type":"SCALAR"},{"bufferView":41,"componentType":5126,"count":4,"max":[0,1,0.3125],"min":[0,0.875,0],"type":"VEC3"},{"bufferView":42,"componentType":5126,"count":1,"max":[0],"min":[0],"type":"SCALAR"},{"bufferView":43,"componentType":5126,"count":1,"max":[0,-0.625,1.5],"min":[0,-0.625,1.5],"type":"VEC3"},{"bufferView":44,"componentType":5126,"count":10,"max":[0.5],"min":[0],"type":"SCALAR"},{"bufferView":45,"componentType":5126,"count":10,"max":[0.1736481785774231,0,0,1],"min":[0,0,0,0.9848077297210693],"type":"VEC4"},{"bufferView":46,"componentType":5126,"count":9,"max":[0.5],"min":[0],"type":"SCALAR"},{"bufferView":47,"componentType":5126,"count":9,"max":[0.537299633026123,0,0,0.8870108127593994],"min":[0.4617486000061035,0,0,0.8433914184570312],"type":"VEC4"},{"bufferView":48,"componentType":5126,"count":10,"max":[0.5],"min":[0],"type":"SCALAR"},{"bufferView":49,"componentType":5126,"count":10,"max":[0.8125,1.25,0],"min":[0.8125,1.125,0],"type":"VEC3"},{"bufferView":50,"componentType":5126,"count":1,"max":[0],"min":[0],"type":"SCALAR"},{"bufferView":51,"componentType":5126,"count":1,"max":[0,-0.3125,1.5],"min":[0,-0.3125,1.5],"type":"VEC3"},{"bufferView":52,"componentType":5126,"count":37,"max":[2],"min":[0],"type":"SCALAR"},{"bufferView":53,"componentType":5126,"count":37,"max":[0.3612521290779114,0,0,1],"min":[-0.9864202737808228,0,0,-1],"type":"VEC4"},{"bufferView":54,"componentType":5126,"count":4,"max":[1.1666666269302368],"min":[0],"type":"SCALAR"},{"bufferView":55,"componentType":5126,"count":4,"max":[-1.474129448710167e-15,1.375,0],"min":[-1.474129448710167e-15,-1.1875,0],"type":"VEC3"},{"bufferView":56,"componentType":5126,"count":34,"max":[2.125],"min":[0],"type":"SCALAR"},{"bufferView":57,"componentType":5126,"count":34,"max":[0.237685889005661,0.0026444459799677134,0.12185798585414886,1],"min":[-0.47388899326324463,-0.014172080904245377,-0.007397216744720936,0.8805845975875854],"type":"VEC4"},{"bufferView":58,"componentType":5126,"count":34,"max":[1.9583333730697632],"min":[0],"type":"SCALAR"},{"bufferView":59,"componentType":5126,"count":34,"max":[0,1.25,0.009259259328246117],"min":[0,0.5224999785423279,-0.19875000417232513],"type":"VEC3"},{"bufferView":60,"componentType":5126,"count":27,"max":[1.9166666269302368],"min":[0],"type":"SCALAR"},{"bufferView":61,"componentType":5126,"count":27,"max":[0.6808931827545166,0.025135397911071777,0.3232666552066803,1],"min":[-0.5187732577323914,-0.17233143746852875,-0.010475751012563705,0.6369649767875671],"type":"VEC4"},{"bufferView":62,"componentType":5126,"count":30,"max":[2.125],"min":[0],"type":"SCALAR"},{"bufferView":63,"componentType":5126,"count":30,"max":[0.06376499682664871,0.7774099707603455,0.925000011920929],"min":[-3.0625,-1.0625,0.04189758375287056],"type":"VEC3"},{"bufferView":64,"componentType":5126,"count":11,"max":[0.875],"min":[0],"type":"SCALAR"},{"bufferView":65,"componentType":5126,"count":11,"max":[0,0,0,1],"min":[-0.9997619986534119,0,0,-0.7372773289680481],"type":"VEC4"},{"bufferView":66,"componentType":5126,"count":11,"max":[0.875],"min":[0],"type":"SCALAR"},{"bufferView":67,"componentType":5126,"count":11,"max":[-1.474129448710167e-15,1.2120000123977661,0],"min":[-1.474129448710167e-15,-5,-3.6524999141693115],"type":"VEC3"},{"bufferView":68,"componentType":5126,"count":1,"max":[1.125],"min":[1.125],"type":"SCALAR"},{"bufferView":69,"componentType":5126,"count":1,"max":[0,0,0,1],"min":[0,0,0,1],"type":"VEC4"},{"bufferView":70,"componentType":5126,"count":4,"max":[1.4583333730697632],"min":[1.125],"type":"SCALAR"},{"bufferView":71,"componentType":5126,"count":4,"max":[-1.6653345369377348e-15,-0.125,1.4500000476837158],"min":[-1.6653345369377348e-15,-3.125,-0.36250001192092896],"type":"VEC3"}],"materials":[{"pbrMetallicRoughness":{"metallicFactor":0,"roughnessFactor":1,"baseColorTexture":{"index":0}},"alphaMode":"MASK","alphaCutoff":0.05,"doubleSided":true},{"pbrMetallicRoughness":{"metallicFactor":0,"roughnessFactor":1,"baseColorTexture":{"index":1}},"alphaMode":"MASK","alphaCutoff":0.05,"doubleSided":true},{"pbrMetallicRoughness":{"metallicFactor":0,"roughnessFactor":1,"baseColorTexture":{"index":2}},"alphaMode":"MASK","alphaCutoff":0.05,"doubleSided":true}],"textures":[{"sampler":0,"source":0},{"sampler":1,"source":1},{"sampler":2,"source":2}],"samplers":[{"magFilter":9728,"minFilter":9728,"wrapS":33071,"wrapT":33071},{"magFilter":9728,"minFilter":9728,"wrapS":33071,"wrapT":33071},{"magFilter":9728,"minFilter":9728,"wrapS":33071,"wrapT":33071}],"images":[{"mimeType":"image/png","uri":"data:image/png;base64,"},{"mimeType":"image/png","uri":"data:image/png;base64,"},{"mimeType":"image/png","uri":"data:image/png;base64,"}],"meshes":[{"primitives":[{"mode":4,"attributes":{"POSITION":0,"NORMAL":1,"TEXCOORD_0":2},"indices":3,"material":0}]},{"primitives":[{"mode":4,"attributes":{"POSITION":4,"NORMAL":5,"TEXCOORD_0":6},"indices":7,"material":0}]},{"primitives":[{"mode":4,"attributes":{"POSITION":8,"NORMAL":9,"TEXCOORD_0":10},"indices":11,"material":1}]},{"primitives":[{"mode":4,"attributes":{"POSITION":12,"NORMAL":13,"TEXCOORD_0":14},"indices":15,"material":2}]},{"primitives":[{"mode":4,"attributes":{"POSITION":16,"NORMAL":17,"TEXCOORD_0":18},"indices":19,"material":0}]},{"primitives":[{"mode":4,"attributes":{"POSITION":20,"NORMAL":21,"TEXCOORD_0":22},"indices":23,"material":0}]}],"animations":[{"name":"idle","samplers":[{"input":24,"output":25,"interpolation":"LINEAR"},{"input":26,"output":27,"interpolation":"LINEAR"},{"input":28,"output":29,"interpolation":"LINEAR"}],"channels":[{"sampler":0,"target":{"node":7,"path":"rotation"}},{"sampler":1,"target":{"node":7,"path":"translation"}},{"sampler":2,"target":{"node":14,"path":"translation"}}]},{"name":"walk","samplers":[{"input":30,"output":31,"interpolation":"LINEAR"},{"input":32,"output":33,"interpolation":"LINEAR"},{"input":34,"output":35,"interpolation":"LINEAR"}],"channels":[{"sampler":0,"target":{"node":7,"path":"rotation"}},{"sampler":1,"target":{"node":7,"path":"translation"}},{"sampler":2,"target":{"node":14,"path":"translation"}}]},{"name":"shoot","samplers":[{"input":36,"output":37,"interpolation":"LINEAR"},{"input":38,"output":39,"interpolation":"LINEAR"},{"input":40,"output":41,"interpolation":"LINEAR"},{"input":42,"output":43,"interpolation":"LINEAR"}],"channels":[{"sampler":0,"target":{"node":3,"path":"rotation"}},{"sampler":1,"target":{"node":7,"path":"rotation"}},{"sampler":2,"target":{"node":7,"path":"translation"}},{"sampler":3,"target":{"node":14,"path":"translation"}}]},{"name":"run","samplers":[{"input":44,"output":45,"interpolation":"LINEAR"},{"input":46,"output":47,"interpolation":"LINEAR"},{"input":48,"output":49,"interpolation":"LINEAR"},{"input":50,"output":51,"interpolation":"LINEAR"}],"channels":[{"sampler":0,"target":{"node":3,"path":"rotation"}},{"sampler":1,"target":{"node":7,"path":"rotation"}},{"sampler":2,"target":{"node":7,"path":"translation"}},{"sampler":3,"target":{"node":14,"path":"translation"}}]},{"name":"reload","samplers":[{"input":52,"output":53,"interpolation":"LINEAR"},{"input":54,"output":55,"interpolation":"STEP"},{"input":56,"output":57,"interpolation":"LINEAR"},{"input":58,"output":59,"interpolation":"LINEAR"},{"input":60,"output":61,"interpolation":"LINEAR"},{"input":62,"output":63,"interpolation":"LINEAR"},{"input":64,"output":65,"interpolation":"LINEAR"},{"input":66,"output":67,"interpolation":"LINEAR"},{"input":68,"output":69,"interpolation":"LINEAR"},{"input":70,"output":71,"interpolation":"STEP"}],"channels":[{"sampler":0,"target":{"node":3,"path":"rotation"}},{"sampler":1,"target":{"node":3,"path":"translation"}},{"sampler":2,"target":{"node":7,"path":"rotation"}},{"sampler":3,"target":{"node":7,"path":"translation"}},{"sampler":4,"target":{"node":11,"path":"rotation"}},{"sampler":5,"target":{"node":11,"path":"translation"}},{"sampler":6,"target":{"node":13,"path":"rotation"}},{"sampler":7,"target":{"node":13,"path":"translation"}},{"sampler":8,"target":{"node":10,"path":"rotation"}},{"sampler":9,"target":{"node":10,"path":"translation"}}]}]}