{"asset":{"version":"2.0","generator":"Blockbench 4.9.4 glTF exporter"},"scenes":[{"nodes":[10],"name":"blockbench_export"}],"scene":0,"nodes":[{"name":"lids","mesh":0},{"translation":[8.881784197001253e-17,-2.3249999999999975,0],"name":"eye back","mesh":1},{"translation":[0.0319208200974792,0.10521018850410568,1.875],"name":"main","children":[0,1]},{"translation":[0,-3.646874999999998,0.25],"name":"eyebrow","mesh":2},{"translation":[0.03192082009747929,1.427085188504106,-1.0625],"name":"eyebrow","children":[3]},{"translation":[-0.18750000000000083,0,-0.9325874999999999],"name":"eye cover","mesh":3},{"rotation":[0.984807753012208,0,0,0.17364817766693041],"name":"cover","children":[5]},{"translation":[0.03192082009747929,-2.219789811495892,1.875],"name":"pupil","mesh":4},{"name":"pupil","children":[7]},{"translation":[-0.03192082009747929,2.219789811495892,-1.875],"name":"eye","children":[2,4,6,8]},{"children":[9]}],"bufferViews":[{"buffer":0,"byteOffset":0,"byteLength":3840,"target":34962,"byteStride":12},{"buffer":0,"byteOffset":3840,"byteLength":3840,"target":34962,"byteStride":12},{"buffer":0,"byteOffset":7680,"byteLength":2560,"target":34962,"byteStride":8},{"buffer":0,"byteOffset":10240,"byteLength":960,"target":34963},{"buffer":0,"byteOffset":11200,"byteLength":3168,"target":34962,"byteStride":12},{"buffer":0,"byteOffset":14368,"byteLength":3168,"target":34962,"byteStride":12},{"buffer":0,"byteOffset":17536,"byteLength":2112,"target":34962,"byteStride":8},{"buffer":0,"byteOffset":19648,"byteLength":720,"target":34963},{"buffer":0,"byteOffset":20368,"byteLength":1440,"target":34962,"byteStride":12},{"buffer":0,"byteOffset":21808,"byteLength":1440,"target":34962,"byteStride":12},{"buffer":0,"byteOffset":23248,"byteLength":960,"target":34962,"byteStride":8},{"buffer":0,"byteOffset":24208,"byteLength":360,"target":34963},{"buffer":0,"byteOffset":24568,"byteLength":1884,"target":34962,"byteStride":12},{"buffer":0,"byteOffset":26452,"byteLength":1884,"target":34962,"byteStride":12},{"buffer":0,"byteOffset":28336,"byteLength":1256,"target":34962,"byteStride":8},{"buffer":0,"byteOffset":29592,"byteLength":428,"target":34963},{"buffer":0,"byteOffset":30020,"byteLength":480,"target":34962,"byteStride":12},{"buffer":0,"byteOffset":30500,"byteLength":480,"target":34962,"byteStride":12},{"buffer":0,"byteOffset":30980,"byteLength":320,"target":34962,"byteStride":8},{"buffer":0,"byteOffset":31300,"byteLength":120,"target":34963},{"buffer":0,"byteOffset":31420,"byteLength":484},{"buffer":0,"byteOffset":31904,"byteLength":1936},{"buffer":0,"byteOffset":33840,"byteLength":488},{"buffer":0,"byteOffset":34328,"byteLength":1464},{"buffer":0,"byteOffset":35792,"byteLength":156},{"buffer":0,"byteOffset":35948,"byteLength":624},{"buffer":0,"byteOffset":36572,"byteLength":488},{"buffer":0,"byteOffset":37060,"byteLength":1464},{"buffer":0,"byteOffset":38524,"byteLength":372},{"buffer":0,"byteOffset":38896,"byteLength":1488},{"buffer":0,"byteOffset":40384,"byteLength":368},{"buffer":0,"byteOffset":40752,"byteLength":1104},{"buffer":0,"byteOffset":41856,"byteLength":368},{"buffer":0,"byteOffset":42224,"byteLength":1104},{"buffer":0,"byteOffset":43328,"byteLength":48},{"buffer":0,"byteOffset":43376,"byteLength":192},{"buffer":0,"byteOffset":43568,"byteLength":48},{"buffer":0,"byteOffset":43616,"byteLength":144},{"buffer":0,"byteOffset":43760,"byteLength":164},{"buffer":0,"byteOffset":43924,"byteLength":656},{"buffer":0,"byteOffset":44580,"byteLength":160},{"buffer":0,"byteOffset":44740,"byteLength":480},{"buffer":0,"byteOffset":45220,"byteLength":164},{"buffer":0,"byteOffset":45384,"byteLength":492},{"buffer":0,"byteOffset":45876,"byteLength":160},{"buffer":0,"byteOffset":46036,"byteLength":640},{"buffer":0,"byteOffset":46676,"byteLength":12},{"buffer":0,"byteOffset":46688,"byteLength":36},{"buffer":0,"byteOffset":46724,"byteLength":160},{"buffer":0,"byteOffset":46884,"byteLength":480},{"buffer":0,"byteOffset":47364,"byteLength":40},{"buffer":0,"byteOffset":47404,"byteLength":160},{"buffer":0,"byteOffset":47564,"byteLength":12},{"buffer":0,"byteOffset":47576,"byteLength":36},{"buffer":0,"byteOffset":47612,"byteLength":172},{"buffer":0,"byteOffset":47784,"byteLength":516},{"buffer":0,"byteOffset":48300,"byteLength":328},{"buffer":0,"byteOffset":48628,"byteLength":984}],"buffers":[{"byteLength":49612,"uri":"data:application/octet-stream;base64,"}],"accessors":[{"bufferView":0,"componentType":5126,"count":320,"max":[3.75,1.837499976158142,3.125],"min":[-3.75,-1.7625000476837158,-3.125],"type":"VEC3"},{"bufferView":1,"componentType":5126,"count":320,"max":[1,1,1],"min":[-1,-1,-1],"type":"VEC3"},{"bufferView":2,"componentType":5126,"count":320,"max":[0.83984375,0.666015625],"min":[0,0],"type":"VEC2"},{"bufferView":3,"componentType":5123,"count":480,"max":[319],"min":[0],"type":"SCALAR"},{"bufferView":4,"componentType":5126,"count":264,"max":[3.75,3.75,-1.4375],"min":[-3.75,0.75,-2.6875],"type":"VEC3"},{"bufferView":5,"componentType":5126,"count":264,"max":[0.830818772315979,0.9943052530288696,0.9938253164291382],"min":[-0.830818772315979,-0.9943052530288696,-0.9938253164291382],"type":"VEC3"},{"bufferView":6,"componentType":5126,"count":264,"max":[0.7143905758857727,0.8274206519126892],"min":[0.18031348288059235,0.0008527636528015137],"type":"VEC2"},{"bufferView":7,"componentType":5123,"count":360,"max":[263],"min":[0],"type":"SCALAR"},{"bufferView":8,"componentType":5126,"count":120,"max":[3.75,4.474999904632568,0.375],"min":[-3.75,3.0999999046325684,-0.875],"type":"VEC3"},{"bufferView":9,"componentType":5126,"count":120,"max":[1,1,1],"min":[-1,-1,-1],"type":"VEC3"},{"bufferView":10,"componentType":5126,"count":120,"max":[0.845703125,0.814453125],"min":[0.0007314780377782881,0.197265625],"type":"VEC2"},{"bufferView":11,"componentType":5123,"count":180,"max":[119],"min":[0],"type":"SCALAR"},{"bufferView":12,"componentType":5126,"count":157,"max":[3.969420909881592,1.5302101373672485,0.4113556742668152],"min":[-3.530579090118408,-1.4697898626327515,-0.4424102008342743],"type":"VEC3"},{"bufferView":13,"componentType":5126,"count":157,"max":[0.830818772315979,0.9943052530288696,0.3049163818359375],"min":[-0.830818772315979,-0.9943052530288696,-0.9938253164291382],"type":"VEC3"},{"bufferView":14,"componentType":5126,"count":157,"max":[0.6948593258857727,0.830078125],"min":[0.2602492570877075,0.041868388652801514],"type":"VEC2"},{"bufferView":15,"componentType":5123,"count":213,"max":[156],"min":[0],"type":"SCALAR"},{"bufferView":16,"componentType":5126,"count":40,"max":[0.9375,3.0625,-2.3125],"min":[-0.9375,1.8125,-3],"type":"VEC3"},{"bufferView":17,"componentType":5126,"count":40,"max":[1,1,1],"min":[-1,-1,-1],"type":"VEC3"},{"bufferView":18,"componentType":5126,"count":40,"max":[0.615234375,0.552734375],"min":[0.28125,0.029296875],"type":"VEC2"},{"bufferView":19,"componentType":5123,"count":60,"max":[39],"min":[0],"type":"SCALAR"},{"bufferView":20,"componentType":5126,"count":121,"max":[6.5],"min":[0],"type":"SCALAR"},{"bufferView":21,"componentType":5126,"count":121,"max":[0.017773889005184174,0,0.02181488461792469,1],"min":[-0.237685889005661,-0.00036755952169187367,-0.044085655361413956,0.9713420867919922],"type":"VEC4"},{"bufferView":22,"componentType":5126,"count":122,"max":[6.5],"min":[0],"type":"SCALAR"},{"bufferView":23,"componentType":5126,"count":122,"max":[0.031920820474624634,1.6162751913070679,-1.0625],"min":[0.031920820474624634,1.3005095720291138,-1.0625],"type":"VEC3"},{"bufferView":24,"componentType":5126,"count":39,"max":[2],"min":[0],"type":"SCALAR"},{"bufferView":25,"componentType":5126,"count":39,"max":[0.9848077297210693,0,0,0.9997619986534119],"min":[0.02181488461792469,0,0,0.1736481785774231],"type":"VEC4"},{"bufferView":26,"componentType":5126,"count":122,"max":[6.5],"min":[0],"type":"SCALAR"},{"bufferView":27,"componentType":5126,"count":122,"max":[1.471588134765625,0.006721832789480686,0],"min":[-1.7110081911087036,-1,0],"type":"VEC3"},{"bufferView":28,"componentType":5126,"count":93,"max":[5.25],"min":[0],"type":"SCALAR"},{"bufferView":29,"componentType":5126,"count":93,"max":[0,0,0.025130094960331917,1],"min":[0,0,-0.04361938685178757,0.9990482330322266],"type":"VEC4"},{"bufferView":30,"componentType":5126,"count":92,"max":[5.25],"min":[0],"type":"SCALAR"},{"bufferView":31,"componentType":5126,"count":92,"max":[0.031920820474624634,1.4502151012420654,-1.0625],"min":[0.031920820474624634,1.1145851612091064,-1.0625],"type":"VEC3"},{"bufferView":32,"componentType":5126,"count":92,"max":[5.25],"min":[0],"type":"SCALAR"},{"bufferView":33,"componentType":5126,"count":92,"max":[0.19579343497753143,0,0],"min":[-0.3146111071109772,-0.440643310546875,0],"type":"VEC3"},{"bufferView":34,"componentType":5126,"count":12,"max":[0.6666666865348816],"min":[0],"type":"SCALAR"},{"bufferView":35,"componentType":5126,"count":12,"max":[0,0,0.02181488461792469,1],"min":[0,0,-0.02181488461792469,0.9997619986534119],"type":"VEC4"},{"bufferView":36,"componentType":5126,"count":12,"max":[0.6666666865348816],"min":[0],"type":"SCALAR"},{"bufferView":37,"componentType":5126,"count":12,"max":[0.0625,0.0625,0],"min":[-0.0625,-0.0625,0],"type":"VEC3"},{"bufferView":38,"componentType":5126,"count":41,"max":[2.25],"min":[0],"type":"SCALAR"},{"bufferView":39,"componentType":5126,"count":41,"max":[0.08185111731290817,0.00569347245618701,0.04357787221670151,1],"min":[-0.13040195405483246,-0.0019026509253308177,-0.04324621707201004,0.9905012249946594],"type":"VEC4"},{"bufferView":40,"componentType":5126,"count":40,"max":[2.25],"min":[0],"type":"SCALAR"},{"bufferView":41,"componentType":5126,"count":40,"max":[0.031920820474624634,1.5551233291625977,-1.0625],"min":[0.031920820474624634,1.1770851612091064,-1.0625],"type":"VEC3"},{"bufferView":42,"componentType":5126,"count":41,"max":[2.25],"min":[0],"type":"SCALAR"},{"bufferView":43,"componentType":5126,"count":41,"max":[1.5625,0.30859375,0],"min":[-1.5,-0.4375,0],"type":"VEC3"},{"bufferView":44,"componentType":5126,"count":40,"max":[2.2083332538604736],"min":[0],"type":"SCALAR"},{"bufferView":45,"componentType":5126,"count":40,"max":[0.13432268798351288,0,0,1],"min":[-0.1736481785774231,0,0,0.9848077297210693],"type":"VEC4"},{"bufferView":46,"componentType":5126,"count":3,"max":[2.2083332538604736],"min":[0],"type":"SCALAR"},{"bufferView":47,"componentType":5126,"count":3,"max":[0.031920820474624634,1.4270851612091064,-1.0625],"min":[0.031920820474624634,1.4270851612091064,-1.0625],"type":"VEC3"},{"bufferView":48,"componentType":5126,"count":40,"max":[2.2083332538604736],"min":[0],"type":"SCALAR"},{"bufferView":49,"componentType":5126,"count":40,"max":[0,0.666363000869751,0],"min":[0,-0.5,0],"type":"VEC3"},{"bufferView":50,"componentType":5126,"count":10,"max":[1.8333333730697632],"min":[0],"type":"SCALAR"},{"bufferView":51,"componentType":5126,"count":10,"max":[0.08707278966903687,0.004748706240206957,0.021768176928162575,1],"min":[-0.06538756191730499,-0.0014267617370933294,-0.04357787221670151,0.9952465295791626],"type":"VEC4"},{"bufferView":52,"componentType":5126,"count":3,"max":[1.8333333730697632],"min":[0],"type":"SCALAR"},{"bufferView":53,"componentType":5126,"count":3,"max":[0.031920820474624634,1.4270851612091064,-1.0625],"min":[0.031920820474624634,1.1770851612091064,-1.0625],"type":"VEC3"},{"bufferView":54,"componentType":5126,"count":43,"max":[2.4583332538604736],"min":[0],"type":"SCALAR"},{"bufferView":55,"componentType":5126,"count":43,"max":[0.8333333134651184,0.37890625,0],"min":[-0.375,-0.7702546119689941,0],"type":"VEC3"},{"bufferView":56,"componentType":5126,"count":82,"max":[4.791666507720947],"min":[0],"type":"SCALAR"},{"bufferView":57,"componentType":5126,"count":82,"max":[1,1.0592492818832397,1],"min":[1,0.09913194179534912,1],"type":"VEC3"}],"materials":[{"pbrMetallicRoughness":{"metallicFactor":0,"roughnessFactor":1,"baseColorTexture":{"index":0}},"alphaMode":"MASK","alphaCutoff":0.05,"doubleSided":true}],"textures":[{"sampler":0,"source":0}],"samplers":[{"magFilter":9728,"minFilter":9728,"wrapS":33071,"wrapT":33071}],"images":[{"mimeType":"image/png","uri":"data:image/png;base64,"}],"meshes":[{"primitives":[{"mode":4,"attributes":{"POSITION":0,"NORMAL":1,"TEXCOORD_0":2},"indices":3,"material":0}]},{"primitives":[{"mode":4,"attributes":{"POSITION":4,"NORMAL":5,"TEXCOORD_0":6},"indices":7,"material":0}]},{"primitives":[{"mode":4,"attributes":{"POSITION":8,"NORMAL":9,"TEXCOORD_0":10},"indices":11,"material":0}]},{"primitives":[{"mode":4,"attributes":{"POSITION":12,"NORMAL":13,"TEXCOORD_0":14},"indices":15,"material":0}]},{"primitives":[{"mode":4,"attributes":{"POSITION":16,"NORMAL":17,"TEXCOORD_0":18},"indices":19,"material":0}]}],"animations":[{"name":"open","samplers":[{"input":20,"output":21,"interpolation":"LINEAR"},{"input":22,"output":23,"interpolation":"LINEAR"},{"input":24,"output":25,"interpolation":"LINEAR"},{"input":26,"output":27,"interpolation":"LINEAR"}],"channels":[{"sampler":0,"target":{"node":4,"path":"rotation"}},{"sampler":1,"target":{"node":4,"path":"translation"}},{"sampler":2,"target":{"node":6,"path":"rotation"}},{"sampler":3,"target":{"node":8,"path":"translation"}}]},{"name":"idle","samplers":[{"input":28,"output":29,"interpolation":"LINEAR"},{"input":30,"output":31,"interpolation":"LINEAR"},{"input":32,"output":33,"interpolation":"LINEAR"}],"channels":[{"sampler":0,"target":{"node":4,"path":"rotation"}},{"sampler":1,"target":{"node":4,"path":"translation"}},{"sampler":2,"target":{"node":8,"path":"translation"}}]},{"name":"laser attack","samplers":[{"input":34,"output":35,"interpolation":"LINEAR"},{"input":36,"output":37,"interpolation":"LINEAR"}],"channels":[{"sampler":0,"target":{"node":4,"path":"rotation"}},{"sampler":1,"target":{"node":8,"path":"translation"}}]},{"name":"balls attack","samplers":[{"input":38,"output":39,"interpolation":"LINEAR"},{"input":40,"output":41,"interpolation":"LINEAR"},{"input":42,"output":43,"interpolation":"LINEAR"}],"channels":[{"sampler":0,"target":{"node":4,"path":"rotation"}},{"sampler":1,"target":{"node":4,"path":"translation"}},{"sampler":2,"target":{"node":8,"path":"translation"}}]},{"name":"orbital","samplers":[{"input":44,"output":45,"interpolation":"LINEAR"},{"input":46,"output":47,"interpolation":"LINEAR"},{"input":48,"output":49,"interpolation":"LINEAR"}],"channels":[{"sampler":0,"target":{"node":4,"path":"rotation"}},{"sampler":1,"target":{"node":4,"path":"translation"}},{"sampler":2,"target":{"node":8,"path":"translation"}}]},{"name":"death","samplers":[{"input":50,"output":51,"interpolation":"LINEAR"},{"input":52,"output":53,"interpolation":"LINEAR"},{"input":54,"output":55,"interpolation":"LINEAR"},{"input":56,"output":57,"interpolation":"LINEAR"}],"channels":[{"sampler":0,"target":{"node":4,"path":"rotation"}},{"sampler":1,"target":{"node":4,"path":"translation"}},{"sampler":2,"target":{"node":8,"path":"translation"}},{"sampler":3,"target":{"node":8,"path":"scale"}}]}]}