{"asset":{"version":"2.0","generator":"Blockbench 4.9.4 glTF exporter"},"scenes":[{"nodes":[13],"name":"blockbench_export"}],"scene":0,"nodes":[{"name":"Staff","mesh":0},{"name":"Staff","children":[0]},{"name":"Fist","mesh":1},{"translation":[0,0,0.375],"name":"RightFist","children":[2]},{"rotation":[0,0.7071067811865475,0,0.7071067811865476],"translation":[0,0.5625,0.42499999999999993],"name":"Fist","mesh":2},{"translation":[0,0,-0.4375],"name":"LeftFist","children":[4]},{"name":"Rod","children":[1,3,5]},{"rotation":[0,0,0.7071067811865475,0.7071067811865476],"translation":[0.0018750000000001474,0.4375,5.545777512430469e-16],"name":"Outer Cog","mesh":3},{"translation":[-0.0018750000000001474,0,-5.551115123125783e-16],"name":"OuterCog","children":[7]},{"rotation":[0,0,0.7071067811865475,0.7071067811865476],"translation":[5.342948306008566e-16,8.881784197001252e-16,1.2212666775304534e-15],"name":"Inner Cog","mesh":4},{"translation":[0.031250000000000354,-8.881784197001252e-16,-1.2212453270876722e-15],"name":"InnerCog","children":[9]},{"translation":[0,4,0],"name":"Cog","children":[8,10]},{"translation":[0,0.375,0],"name":"CogRod","children":[6,11]},{"children":[12]}],"bufferViews":[{"buffer":0,"byteOffset":0,"byteLength":2016,"target":34962,"byteStride":12},{"buffer":0,"byteOffset":2016,"byteLength":2016,"target":34962,"byteStride":12},{"buffer":0,"byteOffset":4032,"byteLength":1344,"target":34962,"byteStride":8},{"buffer":0,"byteOffset":5376,"byteLength":504,"target":34963},{"buffer":0,"byteOffset":5880,"byteLength":288,"target":34962,"byteStride":12},{"buffer":0,"byteOffset":6168,"byteLength":288,"target":34962,"byteStride":12},{"buffer":0,"byteOffset":6456,"byteLength":192,"target":34962,"byteStride":8},{"buffer":0,"byteOffset":6648,"byteLength":72,"target":34963},{"buffer":0,"byteOffset":6720,"byteLength":288,"target":34962,"byteStride":12},{"buffer":0,"byteOffset":7008,"byteLength":288,"target":34962,"byteStride":12},{"buffer":0,"byteOffset":7296,"byteLength":192,"target":34962,"byteStride":8},{"buffer":0,"byteOffset":7488,"byteLength":72,"target":34963},{"buffer":0,"byteOffset":7560,"byteLength":10896,"target":34962,"byteStride":12},{"buffer":0,"byteOffset":18456,"byteLength":10896,"target":34962,"byteStride":12},{"buffer":0,"byteOffset":29352,"byteLength":7264,"target":34962,"byteStride":8},{"buffer":0,"byteOffset":36616,"byteLength":2724,"target":34963},{"buffer":0,"byteOffset":39340,"byteLength":2592,"target":34962,"byteStride":12},{"buffer":0,"byteOffset":41932,"byteLength":2592,"target":34962,"byteStride":12},{"buffer":0,"byteOffset":44524,"byteLength":1728,"target":34962,"byteStride":8},{"buffer":0,"byteOffset":46252,"byteLength":576,"target":34963},{"buffer":0,"byteOffset":46828,"byteLength":148},{"buffer":0,"byteOffset":46976,"byteLength":592},{"buffer":0,"byteOffset":47568,"byteLength":156},{"buffer":0,"byteOffset":47724,"byteLength":468},{"buffer":0,"byteOffset":48192,"byteLength":56},{"buffer":0,"byteOffset":48248,"byteLength":224},{"buffer":0,"byteOffset":48472,"byteLength":56},{"buffer":0,"byteOffset":48528,"byteLength":168},{"buffer":0,"byteOffset":48696,"byteLength":120},{"buffer":0,"byteOffset":48816,"byteLength":480},{"buffer":0,"byteOffset":49296,"byteLength":120},{"buffer":0,"byteOffset":49416,"byteLength":360},{"buffer":0,"byteOffset":49776,"byteLength":120},{"buffer":0,"byteOffset":49896,"byteLength":480},{"buffer":0,"byteOffset":50376,"byteLength":52},{"buffer":0,"byteOffset":50428,"byteLength":208},{"buffer":0,"byteOffset":50636,"byteLength":52},{"buffer":0,"byteOffset":50688,"byteLength":156},{"buffer":0,"byteOffset":50844,"byteLength":44},{"buffer":0,"byteOffset":50888,"byteLength":176},{"buffer":0,"byteOffset":51064,"byteLength":40},{"buffer":0,"byteOffset":51104,"byteLength":160},{"buffer":0,"byteOffset":51264,"byteLength":40},{"buffer":0,"byteOffset":51304,"byteLength":120},{"buffer":0,"byteOffset":51424,"byteLength":12},{"buffer":0,"byteOffset":51436,"byteLength":48},{"buffer":0,"byteOffset":51484,"byteLength":156},{"buffer":0,"byteOffset":51640,"byteLength":624},{"buffer":0,"byteOffset":52264,"byteLength":148},{"buffer":0,"byteOffset":52412,"byteLength":444},{"buffer":0,"byteOffset":52856,"byteLength":60},{"buffer":0,"byteOffset":52916,"byteLength":240},{"buffer":0,"byteOffset":53156,"byteLength":60},{"buffer":0,"byteOffset":53216,"byteLength":180},{"buffer":0,"byteOffset":53396,"byteLength":52},{"buffer":0,"byteOffset":53448,"byteLength":208},{"buffer":0,"byteOffset":53656,"byteLength":32},{"buffer":0,"byteOffset":53688,"byteLength":128},{"buffer":0,"byteOffset":53816,"byteLength":32},{"buffer":0,"byteOffset":53848,"byteLength":96}],"buffers":[{"byteLength":53944,"uri":"data:application/octet-stream;base64,"}],"accessors":[{"bufferView":0,"componentType":5126,"count":168,"max":[0.25,4.315967082977295,0.26025620102882385],"min":[-0.15625,0,-0.26025620102882385],"type":"VEC3"},{"bufferView":1,"componentType":5126,"count":168,"max":[1,1,1],"min":[-1,-1,-1],"type":"VEC3"},{"bufferView":2,"componentType":5126,"count":168,"max":[0.2968059778213501,0.5390625],"min":[0,0],"type":"VEC2"},{"bufferView":3,"componentType":5123,"count":252,"max":[167],"min":[0],"type":"SCALAR"},{"bufferView":4,"componentType":5126,"count":24,"max":[0.1875,1.8125,-0.20000000298023224],"min":[-0.1875,1.4375,-0.574999988079071],"type":"VEC3"},{"bufferView":5,"componentType":5126,"count":24,"max":[1,1,1],"min":[-1,-1,-1],"type":"VEC3"},{"bufferView":6,"componentType":5126,"count":24,"max":[0.84375,0.84375],"min":[0,0],"type":"VEC2"},{"bufferView":7,"componentType":5123,"count":36,"max":[23],"min":[0],"type":"SCALAR"},{"bufferView":8,"componentType":5126,"count":24,"max":[0.1875,0.1875,0.1875],"min":[-0.1875,-0.1875,-0.1875],"type":"VEC3"},{"bufferView":9,"componentType":5126,"count":24,"max":[1,1,1],"min":[-1,-1,-1],"type":"VEC3"},{"bufferView":10,"componentType":5126,"count":24,"max":[0.625,0.625],"min":[0,0],"type":"VEC2"},{"bufferView":11,"componentType":5123,"count":36,"max":[23],"min":[0],"type":"SCALAR"},{"bufferView":12,"componentType":5126,"count":908,"max":[0.375,0.1875,0.7790063619613647],"min":[-1.25,-0.125,-0.7790063619613647],"type":"VEC3"},{"bufferView":13,"componentType":5126,"count":908,"max":[1,1,1],"min":[-1,-1,-1],"type":"VEC3"},{"bufferView":14,"componentType":5126,"count":908,"max":[0.996681272983551,0.90625],"min":[0,0],"type":"VEC2"},{"bufferView":15,"componentType":5123,"count":1362,"max":[907],"min":[0],"type":"SCALAR"},{"bufferView":16,"componentType":5126,"count":216,"max":[0.1875,0.09375,0.1791265904903412],"min":[-0.1875,-0.09375,-0.1791265904903412],"type":"VEC3"},{"bufferView":17,"componentType":5126,"count":216,"max":[1,1,1],"min":[-1,-1,-1],"type":"VEC3"},{"bufferView":18,"componentType":5126,"count":216,"max":[0.890625,0.921875],"min":[0.125,0.046875],"type":"VEC2"},{"bufferView":19,"componentType":5123,"count":288,"max":[215],"min":[0],"type":"SCALAR"},{"bufferView":20,"componentType":5126,"count":37,"max":[2],"min":[0],"type":"SCALAR"},{"bufferView":21,"componentType":5126,"count":37,"max":[0.321998655796051,0.015353321097791195,-0.04081438109278679,0.958880603313446],"min":[0.2804397940635681,0.013558409176766872,-0.04144524037837982,0.9457353353500366],"type":"VEC4"},{"bufferView":22,"componentType":5126,"count":39,"max":[2],"min":[0],"type":"SCALAR"},{"bufferView":23,"componentType":5126,"count":39,"max":[0,0.5,0],"min":[0,0.375,0],"type":"VEC3"},{"bufferView":24,"componentType":5126,"count":14,"max":[0.7916666865348816],"min":[0],"type":"SCALAR"},{"bufferView":25,"componentType":5126,"count":14,"max":[0.321998655796051,0.015353321097791195,-0.04081438109278679,0.958880603313446],"min":[0.2804397940635681,0.013558409176766872,-0.04144524037837982,0.9457353353500366],"type":"VEC4"},{"bufferView":26,"componentType":5126,"count":14,"max":[0.7916666865348816],"min":[0],"type":"SCALAR"},{"bufferView":27,"componentType":5126,"count":14,"max":[0,0.5,0],"min":[0,0.375,0],"type":"VEC3"},{"bufferView":28,"componentType":5126,"count":30,"max":[1.6666666269302368],"min":[0],"type":"SCALAR"},{"bufferView":29,"componentType":5126,"count":30,"max":[0.21103930473327637,0.13205119967460632,-0.44711238145828247,0.8623100519180298],"min":[0.19762860238552094,0.1094273254275322,-0.539648711681366,0.8076413869857788],"type":"VEC4"},{"bufferView":30,"componentType":5126,"count":30,"max":[1.6666666269302368],"min":[0],"type":"SCALAR"},{"bufferView":31,"componentType":5126,"count":30,"max":[-1.5625,0.375,0],"min":[-1.5625,0.25,0],"type":"VEC3"},{"bufferView":32,"componentType":5126,"count":30,"max":[1.6666666269302368],"min":[0],"type":"SCALAR"},{"bufferView":33,"componentType":5126,"count":30,"max":[0.5787308812141418,0,0,1],"min":[-0.5362688302993774,0,0,0.8155186176300049],"type":"VEC4"},{"bufferView":34,"componentType":5126,"count":13,"max":[0.7916666865348816],"min":[0],"type":"SCALAR"},{"bufferView":35,"componentType":5126,"count":13,"max":[-0.39319998025894165,0.2131219208240509,-0.03775118291378021,0.8936149477958679],"min":[-0.5937248468399048,0.19810965657234192,-0.08717034012079239,0.7750126719474792],"type":"VEC4"},{"bufferView":36,"componentType":5126,"count":13,"max":[0.7916666865348816],"min":[0],"type":"SCALAR"},{"bufferView":37,"componentType":5126,"count":13,"max":[0,0.625,3],"min":[0,0.357421875,0.6689814925193787],"type":"VEC3"},{"bufferView":38,"componentType":5126,"count":11,"max":[0.5416666865348816],"min":[0],"type":"SCALAR"},{"bufferView":39,"componentType":5126,"count":11,"max":[0.8660253882408142,0,0,1],"min":[-0.11127621680498123,0,0,0.5],"type":"VEC4"},{"bufferView":40,"componentType":5126,"count":10,"max":[0.5],"min":[0],"type":"SCALAR"},{"bufferView":41,"componentType":5126,"count":10,"max":[-0.5772932767868042,0.21315141022205353,-0.037584345787763596,0.7873286604881287],"min":[-0.5943313241004944,0.2122807800769806,-0.042225275188684464,0.7745476961135864],"type":"VEC4"},{"bufferView":42,"componentType":5126,"count":10,"max":[0.5],"min":[0],"type":"SCALAR"},{"bufferView":43,"componentType":5126,"count":10,"max":[0,0.4375,0.75],"min":[0,0.375,0.625],"type":"VEC3"},{"bufferView":44,"componentType":5126,"count":3,"max":[0.5],"min":[0],"type":"SCALAR"},{"bufferView":45,"componentType":5126,"count":3,"max":[0,0,0,1],"min":[-1,0,0,6.123234262925839e-17],"type":"VEC4"},{"bufferView":46,"componentType":5126,"count":39,"max":[2],"min":[0],"type":"SCALAR"},{"bufferView":47,"componentType":5126,"count":39,"max":[0.4621868431568146,0.01717521622776985,-0.023692768067121506,0.8864727020263672],"min":[0.4618421196937561,-0.0029869528952986,-0.062337614595890045,0.8845903277397156],"type":"VEC4"},{"bufferView":48,"componentType":5126,"count":37,"max":[2],"min":[0],"type":"SCALAR"},{"bufferView":49,"componentType":5126,"count":37,"max":[0.06365741044282913,0.8125,0],"min":[-0.0625,0.8125,0],"type":"VEC3"},{"bufferView":50,"componentType":5126,"count":15,"max":[0.8333333134651184],"min":[0],"type":"SCALAR"},{"bufferView":51,"componentType":5126,"count":15,"max":[0.46211954951286316,0.043583035469055176,-0.0014343691291287541,0.9804567694664001],"min":[-0.7785704731941223,0.007095820270478725,-0.0430254302918911,0.6260402798652649],"type":"VEC4"},{"bufferView":52,"componentType":5126,"count":15,"max":[0.8333333134651184],"min":[0],"type":"SCALAR"},{"bufferView":53,"componentType":5126,"count":15,"max":[0,0.8125,0],"min":[0,0.375,-0.375],"type":"VEC3"},{"bufferView":54,"componentType":5126,"count":13,"max":[0.75],"min":[0],"type":"SCALAR"},{"bufferView":55,"componentType":5126,"count":13,"max":[0.8660253882408142,0,0,1],"min":[-0.07749242335557938,0,0,0.5],"type":"VEC4"},{"bufferView":56,"componentType":5126,"count":8,"max":[0.4166666567325592],"min":[0],"type":"SCALAR"},{"bufferView":57,"componentType":5126,"count":8,"max":[0.574893593788147,0.038893453776836395,-0.019718965515494347,0.9898723363876343],"min":[-0.44104844331741333,0.0013597396900877357,-0.04358542710542679,0.8170653581619263],"type":"VEC4"},{"bufferView":58,"componentType":5126,"count":8,"max":[0.4166666567325592],"min":[0],"type":"SCALAR"},{"bufferView":59,"componentType":5126,"count":8,"max":[0,1.1875,0.0234375],"min":[0,0.375,-0.375],"type":"VEC3"}],"materials":[{"pbrMetallicRoughness":{"metallicFactor":0,"roughnessFactor":1,"baseColorTexture":{"index":0}},"alphaMode":"MASK","alphaCutoff":0.05,"doubleSided":true},{"pbrMetallicRoughness":{"metallicFactor":0,"roughnessFactor":1,"baseColorTexture":{"index":1}},"alphaMode":"MASK","alphaCutoff":0.05,"doubleSided":true},{"pbrMetallicRoughness":{"metallicFactor":0,"roughnessFactor":1,"baseColorTexture":{"index":2}},"alphaMode":"MASK","alphaCutoff":0.05,"doubleSided":true}],"textures":[{"sampler":0,"source":0},{"sampler":1,"source":1},{"sampler":2,"source":2}],"samplers":[{"magFilter":9728,"minFilter":9728,"wrapS":33071,"wrapT":33071},{"magFilter":9728,"minFilter":9728,"wrapS":33071,"wrapT":33071},{"magFilter":9728,"minFilter":9728,"wrapS":33071,"wrapT":33071}],"images":[{"mimeType":"image/png","uri":"data:image/png;base64,"},{"mimeType":"image/png","uri":"data:image/png;base64,"},{"mimeType":"image/png","uri":"data:image/png;base64,"}],"meshes":[{"primitives":[{"mode":4,"attributes":{"POSITION":0,"NORMAL":1,"TEXCOORD_0":2},"indices":3,"material":0}]},{"primitives":[{"mode":4,"attributes":{"POSITION":4,"NORMAL":5,"TEXCOORD_0":6},"indices":7,"material":1}]},{"primitives":[{"mode":4,"attributes":{"POSITION":8,"NORMAL":9,"TEXCOORD_0":10},"indices":11,"material":1}]},{"primitives":[{"mode":4,"attributes":{"POSITION":12,"NORMAL":13,"TEXCOORD_0":14},"indices":15,"material":2}]},{"primitives":[{"mode":4,"attributes":{"POSITION":16,"NORMAL":17,"TEXCOORD_0":18},"indices":19,"material":2}]}],"animations":[{"name":"idle","samplers":[{"input":20,"output":21,"interpolation":"LINEAR"},{"input":22,"output":23,"interpolation":"LINEAR"}],"channels":[{"sampler":0,"target":{"node":12,"path":"rotation"}},{"sampler":1,"target":{"node":12,"path":"translation"}}]},{"name":"walk","samplers":[{"input":24,"output":25,"interpolation":"LINEAR"},{"input":26,"output":27,"interpolation":"LINEAR"}],"channels":[{"sampler":0,"target":{"node":12,"path":"rotation"}},{"sampler":1,"target":{"node":12,"path":"translation"}}]},{"name":"run","samplers":[{"input":28,"output":29,"interpolation":"LINEAR"},{"input":30,"output":31,"interpolation":"LINEAR"},{"input":32,"output":33,"interpolation":"LINEAR"}],"channels":[{"sampler":0,"target":{"node":12,"path":"rotation"}},{"sampler":1,"target":{"node":12,"path":"translation"}},{"sampler":2,"target":{"node":11,"path":"rotation"}}]},{"name":"thrust","samplers":[{"input":34,"output":35,"interpolation":"LINEAR"},{"input":36,"output":37,"interpolation":"LINEAR"},{"input":38,"output":39,"interpolation":"LINEAR"}],"channels":[{"sampler":0,"target":{"node":12,"path":"rotation"}},{"sampler":1,"target":{"node":12,"path":"translation"}},{"sampler":2,"target":{"node":11,"path":"rotation"}}]},{"name":"drill","samplers":[{"input":40,"output":41,"interpolation":"LINEAR"},{"input":42,"output":43,"interpolation":"LINEAR"},{"input":44,"output":45,"interpolation":"LINEAR"}],"channels":[{"sampler":0,"target":{"node":12,"path":"rotation"}},{"sampler":1,"target":{"node":12,"path":"translation"}},{"sampler":2,"target":{"node":11,"path":"rotation"}}]},{"name":"fall","samplers":[{"input":46,"output":47,"interpolation":"LINEAR"},{"input":48,"output":49,"interpolation":"LINEAR"}],"channels":[{"sampler":0,"target":{"node":12,"path":"rotation"}},{"sampler":1,"target":{"node":12,"path":"translation"}}]},{"name":"smash","samplers":[{"input":50,"output":51,"interpolation":"LINEAR"},{"input":52,"output":53,"interpolation":"LINEAR"},{"input":54,"output":55,"interpolation":"LINEAR"}],"channels":[{"sampler":0,"target":{"node":12,"path":"rotation"}},{"sampler":1,"target":{"node":12,"path":"translation"}},{"sampler":2,"target":{"node":11,"path":"rotation"}}]},{"name":"plummet","samplers":[{"input":56,"output":57,"interpolation":"LINEAR"},{"input":58,"output":59,"interpolation":"LINEAR"}],"channels":[{"sampler":0,"target":{"node":12,"path":"rotation"}},{"sampler":1,"target":{"node":12,"path":"translation"}}]}]}